<svg width="568" height="344" viewBox="0 0 568 344" fill="none" xmlns="http://www.w3.org/2000/svg">
<g clip-path="url(#clip0_391_75)">
<path d="M327.041 129.334C337.411 129.334 345.817 120.918 345.817 110.536C345.817 100.155 337.411 91.7389 327.041 91.7389C316.671 91.7389 308.265 100.155 308.265 110.536C308.265 120.918 316.671 129.334 327.041 129.334Z" fill="#2F2E41"/>
<path d="M332.272 92.2563C335.522 92.2567 338.716 93.1013 341.542 94.7075C344.367 96.3136 346.729 98.6264 348.394 101.42C350.06 104.213 350.973 107.391 351.044 110.644C351.116 113.896 350.343 117.111 348.801 119.975C350.429 117.936 351.615 115.58 352.283 113.057C352.951 110.533 353.087 107.899 352.681 105.32C352.276 102.742 351.339 100.276 349.929 98.0801C348.519 95.8843 346.668 94.0066 344.493 92.5667C342.318 91.1267 339.868 90.1562 337.298 89.7168C334.727 89.2774 332.094 89.3788 329.565 90.0146C327.036 90.6505 324.668 91.8067 322.61 93.4097C320.552 95.0126 318.85 97.0272 317.613 99.325C319.368 97.1189 321.598 95.3376 324.136 94.1138C326.674 92.8899 329.455 92.255 332.272 92.2563Z" fill="#2F2E41"/>
<path d="M291.954 110.497C322.416 110.497 347.11 85.7747 347.11 55.2788C347.11 24.7828 322.416 0.0609131 291.954 0.0609131C261.493 0.0609131 236.799 24.7828 236.799 55.2788C236.799 85.7747 261.493 110.497 291.954 110.497Z" fill="#2F2E41"/>
<path d="M248.666 21.0187C258.17 10.3184 271.455 3.7332 285.716 2.65297C299.978 1.57275 314.101 6.08201 325.105 15.2291C324.654 14.7998 324.208 14.3671 323.739 13.95C312.806 4.22403 298.461 -0.756255 283.861 0.104483C269.26 0.965222 255.599 7.5965 245.881 18.5399C236.164 29.4833 231.186 43.8427 232.042 58.4601C232.898 73.0775 239.519 86.7558 250.448 96.4868C250.917 96.9039 251.398 97.2969 251.877 97.695C241.514 87.8262 235.386 74.3127 234.787 60.0067C234.188 45.7006 239.165 31.7212 248.666 21.0187Z" fill="#2F2E41"/>
<path d="M291.487 110.029C311.106 110.029 327.011 94.1061 327.011 74.4647C327.011 54.8232 311.106 38.9006 291.487 38.9006C271.868 38.9006 255.963 54.8232 255.963 74.4647C255.963 94.1061 271.868 110.029 291.487 110.029Z" fill="#FFB8B8"/>
<path d="M266.246 85.6954C266.246 85.6954 270.92 128.747 263.441 133.426C255.963 138.106 306.444 144.657 306.444 144.657C306.444 144.657 298.965 97.8621 317.662 85.6954H266.246Z" fill="#FFB8B8"/>
<path d="M311.119 125.939C311.119 125.939 325.039 119.431 304.991 121.749C284.943 124.067 267.646 115.176 267.646 115.176C267.646 115.176 261.572 109.093 260.637 115.644C259.702 122.195 263.442 134.362 242.875 136.234C222.309 138.106 203.612 132.49 196.133 146.529C188.654 160.567 192.394 221.4 192.394 221.4C192.394 221.4 206.416 271.939 217.635 279.426C228.853 286.913 327.011 276.618 327.011 276.618L355.056 226.08V167.118C355.056 167.118 351.317 146.529 325.141 152.144C325.141 152.144 308.314 148.4 309.249 139.977C310.184 131.554 311.119 125.939 311.119 125.939Z" fill="#D0CDE1"/>
<path d="M221.345 315.191C221.923 312.671 222.31 311.245 222.31 311.245L222.011 309.195L218.931 288.257L217.636 279.425C228.851 274.746 231.658 253.219 231.658 253.219L232.081 252.966L233.995 251.819V251.814L240.866 247.687L241.006 247.605L243.781 249.454L249.42 253.219C269.148 267.742 289.237 267.484 301.634 265.196C309.212 263.796 313.922 261.643 313.922 261.643L327.521 257.103L327.944 256.963L328.362 257.025L336.338 258.234L336.482 258.26L337.143 258.358L335.296 271.141L332.618 289.718C339.691 293.468 345.98 300.513 351.479 309.195C352.697 311.116 353.877 313.115 355.018 315.191C356.504 317.877 357.923 320.671 359.275 323.532C359.44 323.873 359.6 324.219 359.76 324.565C360.281 325.686 360.797 326.817 361.297 327.953H218.869C219.054 326.812 219.24 325.722 219.421 324.673C219.43 324.638 219.437 324.602 219.441 324.565C219.508 324.214 219.57 323.873 219.627 323.532C220.256 320.123 220.865 317.277 221.345 315.191Z" fill="#2F2E41"/>
<path d="M215.765 135.298C215.765 135.298 226.048 154.016 222.309 177.413C218.569 200.811 233.527 258.836 233.527 258.836L244.745 256.028C244.745 256.028 237.266 207.362 239.136 196.131C241.005 184.9 241.005 140.913 231.657 135.298C222.309 129.683 215.765 135.298 215.765 135.298Z" fill="#2F2E41"/>
<path d="M324.483 154.75L328.413 258.368L335.892 263.048C335.892 263.048 346.642 149.336 341.033 149.336H329.62C328.923 149.336 328.232 149.478 327.591 149.754C326.95 150.029 326.372 150.433 325.891 150.939C325.411 151.445 325.038 152.044 324.796 152.699C324.554 153.354 324.448 154.052 324.483 154.75Z" fill="#2F2E41"/>
<path d="M238.668 256.496C241.25 256.496 243.343 254.401 243.343 251.817C243.343 249.233 241.25 247.137 238.668 247.137C236.087 247.137 233.994 249.233 233.994 251.817C233.994 254.401 236.087 256.496 238.668 256.496Z" fill="#6C63FF"/>
<path d="M332.153 261.176C334.734 261.176 336.827 259.081 336.827 256.496C336.827 253.912 334.734 251.817 332.153 251.817C329.571 251.817 327.479 253.912 327.479 256.496C327.479 259.081 329.571 261.176 332.153 261.176Z" fill="#6C63FF"/>
<path d="M261.104 30.0094V65.5735H269.331L279.802 54.3427L278.399 65.5735H314.764L312.521 54.3427L317.008 65.5735H322.804V30.0094H261.104Z" fill="#2F2E41"/>
<path d="M255.496 72.1249C257.045 72.1249 258.3 69.8203 258.3 66.9775C258.3 64.1347 257.045 61.8301 255.496 61.8301C253.947 61.8301 252.691 64.1347 252.691 66.9775C252.691 69.8203 253.947 72.1249 255.496 72.1249Z" fill="#FFB8B8"/>
<path d="M327.478 72.1249C329.027 72.1249 330.283 69.8203 330.283 66.9775C330.283 64.1347 329.027 61.8301 327.478 61.8301C325.929 61.8301 324.674 64.1347 324.674 66.9775C324.674 69.8203 325.929 72.1249 327.478 72.1249Z" fill="#FFB8B8"/>
<path d="M346.643 256.028C346.643 256.028 304.108 248.073 301.303 262.112C298.499 276.15 348.513 270.067 348.513 270.067L346.643 256.028Z" fill="#FFB8B8"/>
<path d="M345.708 159.631C345.708 159.631 447.606 241.054 428.909 260.708C410.212 280.362 339.164 274.746 339.164 274.746L343.838 251.349L384.971 246.67L364.405 226.08L345.708 227.952V159.631Z" fill="#D0CDE1"/>
<path d="M195.198 295.336L208.286 305.631C208.286 305.631 217.634 334.644 231.657 326.221C245.68 317.798 218.569 287.849 218.569 287.849L202.677 282.234L195.198 295.336Z" fill="#FFB8B8"/>
<path d="M208.286 144.657L195.234 148.589C195.234 148.589 104.519 215.785 100.78 234.503C97.0402 253.221 118.542 263.516 118.542 263.516L199.873 301.887L208.286 279.426L169.958 259.772C169.958 259.772 172.762 254.157 161.544 253.221C150.326 252.285 148.456 240.118 148.456 240.118C148.456 240.118 170.893 205.49 183.046 212.977C195.198 220.464 198.938 226.08 198.938 226.08L208.286 144.657Z" fill="#D0CDE1"/>
<path d="M394.453 318.398V321.533C394.455 322.394 394.296 323.247 393.984 324.048C393.845 324.406 393.678 324.751 393.483 325.081C392.869 326.115 391.996 326.97 390.952 327.564C389.907 328.158 388.726 328.47 387.525 328.47H157.152C155.951 328.47 154.77 328.158 153.725 327.564C152.681 326.97 151.808 326.115 151.194 325.081C150.999 324.751 150.832 324.406 150.693 324.048C150.381 323.247 150.222 322.394 150.224 321.533V318.398C150.223 317.487 150.402 316.585 150.751 315.744C151.099 314.902 151.609 314.137 152.252 313.493C152.896 312.849 153.66 312.338 154.5 311.989C155.341 311.641 156.242 311.462 157.152 311.462H170.431V310C170.431 309.962 170.439 309.925 170.453 309.89C170.468 309.854 170.489 309.823 170.516 309.796C170.543 309.769 170.574 309.747 170.61 309.733C170.645 309.718 170.682 309.711 170.72 309.711H177.649C177.687 309.711 177.724 309.718 177.759 309.733C177.794 309.747 177.826 309.769 177.853 309.796C177.88 309.823 177.901 309.854 177.916 309.89C177.93 309.925 177.938 309.962 177.938 310V311.462H182.266V310C182.266 309.962 182.273 309.925 182.288 309.89C182.302 309.854 182.323 309.823 182.35 309.796C182.377 309.769 182.409 309.747 182.444 309.733C182.479 309.718 182.517 309.711 182.555 309.711H189.483C189.521 309.711 189.559 309.718 189.594 309.733C189.629 309.747 189.661 309.769 189.688 309.796C189.714 309.823 189.736 309.854 189.75 309.89C189.765 309.925 189.772 309.962 189.772 310V311.462H194.106V310C194.106 309.962 194.113 309.925 194.128 309.89C194.142 309.854 194.163 309.823 194.19 309.796C194.217 309.769 194.249 309.747 194.284 309.733C194.319 309.718 194.357 309.711 194.395 309.711H201.323C201.361 309.711 201.399 309.718 201.434 309.733C201.469 309.747 201.501 309.769 201.527 309.796C201.554 309.823 201.576 309.854 201.59 309.89C201.605 309.925 201.612 309.962 201.612 310V311.462H205.94V310C205.94 309.962 205.948 309.925 205.962 309.89C205.977 309.854 205.998 309.823 206.025 309.796C206.052 309.769 206.083 309.747 206.119 309.733C206.154 309.718 206.191 309.711 206.229 309.711H213.158C213.196 309.711 213.233 309.718 213.268 309.733C213.303 309.747 213.335 309.769 213.362 309.796C213.389 309.823 213.41 309.854 213.425 309.89C213.439 309.925 213.447 309.962 213.447 310V311.462H217.775V310C217.775 309.962 217.782 309.925 217.797 309.89C217.811 309.854 217.833 309.823 217.859 309.796C217.886 309.769 217.918 309.747 217.953 309.733C217.988 309.718 218.026 309.711 218.064 309.711H224.992C225.03 309.711 225.068 309.718 225.103 309.733C225.138 309.747 225.17 309.769 225.197 309.796C225.224 309.823 225.245 309.854 225.259 309.89C225.274 309.925 225.281 309.962 225.281 310V311.462H229.615V310C229.615 309.962 229.622 309.925 229.637 309.89C229.651 309.854 229.672 309.823 229.699 309.796C229.726 309.769 229.758 309.747 229.793 309.733C229.828 309.718 229.866 309.711 229.904 309.711H236.832C236.87 309.711 236.908 309.718 236.943 309.733C236.978 309.747 237.01 309.769 237.036 309.796C237.063 309.823 237.085 309.854 237.099 309.89C237.114 309.925 237.121 309.962 237.121 310V311.462H241.449V310C241.449 309.962 241.457 309.925 241.471 309.89C241.486 309.854 241.507 309.823 241.534 309.796C241.561 309.769 241.592 309.747 241.628 309.733C241.663 309.718 241.7 309.711 241.738 309.711H296.01C296.048 309.711 296.086 309.718 296.121 309.733C296.156 309.747 296.188 309.769 296.215 309.796C296.242 309.823 296.263 309.854 296.277 309.89C296.292 309.925 296.299 309.962 296.299 310V311.462H300.633V310C300.633 309.962 300.64 309.925 300.655 309.89C300.669 309.854 300.69 309.823 300.717 309.796C300.744 309.769 300.776 309.747 300.811 309.733C300.846 309.718 300.884 309.711 300.922 309.711H307.85C307.926 309.712 308 309.743 308.054 309.797C308.108 309.851 308.138 309.924 308.139 310V311.462H312.467V310C312.467 309.962 312.475 309.925 312.489 309.89C312.504 309.854 312.525 309.823 312.552 309.796C312.579 309.769 312.611 309.747 312.646 309.733C312.681 309.718 312.718 309.711 312.756 309.711H319.685C319.723 309.711 319.76 309.718 319.795 309.733C319.83 309.747 319.862 309.769 319.889 309.796C319.916 309.823 319.937 309.854 319.952 309.89C319.966 309.925 319.974 309.962 319.974 310V311.462H324.302V310C324.302 309.962 324.309 309.925 324.324 309.89C324.338 309.854 324.36 309.823 324.386 309.796C324.413 309.769 324.445 309.747 324.48 309.733C324.515 309.718 324.553 309.711 324.591 309.711H331.519C331.557 309.711 331.595 309.718 331.63 309.733C331.665 309.747 331.697 309.769 331.724 309.796C331.751 309.823 331.772 309.854 331.786 309.89C331.801 309.925 331.808 309.962 331.808 310V311.462H336.142V310C336.142 309.962 336.149 309.925 336.164 309.89C336.178 309.854 336.199 309.823 336.226 309.796C336.253 309.769 336.285 309.747 336.32 309.733C336.355 309.718 336.393 309.711 336.431 309.711H343.359C343.435 309.712 343.507 309.743 343.561 309.797C343.614 309.851 343.643 309.924 343.643 310V311.462H347.976V310C347.976 309.962 347.984 309.925 347.998 309.89C348.013 309.854 348.034 309.823 348.061 309.796C348.088 309.769 348.12 309.747 348.155 309.733C348.19 309.718 348.227 309.711 348.265 309.711H355.194C355.232 309.711 355.269 309.718 355.304 309.733C355.339 309.747 355.371 309.769 355.398 309.796C355.425 309.823 355.446 309.854 355.461 309.89C355.475 309.925 355.483 309.962 355.483 310V311.462H359.811V310C359.811 309.962 359.818 309.925 359.833 309.89C359.847 309.854 359.869 309.823 359.895 309.796C359.922 309.769 359.954 309.747 359.989 309.733C360.024 309.718 360.062 309.711 360.1 309.711H367.028C367.066 309.711 367.104 309.718 367.139 309.733C367.174 309.747 367.206 309.769 367.233 309.796C367.26 309.823 367.281 309.854 367.295 309.89C367.31 309.925 367.317 309.962 367.317 310V311.462H387.525C388.435 311.462 389.336 311.641 390.177 311.989C391.017 312.338 391.781 312.849 392.425 313.493C393.068 314.137 393.578 314.902 393.926 315.744C394.275 316.585 394.454 317.487 394.453 318.398Z" fill="#3F3D56"/>
<path d="M461.441 324.046H83.29V325.079H461.441V324.046Z" fill="#3F3D56"/>
<path d="M375.903 186.369H290.036V184.597H251.101V186.369H164.88C163.339 186.369 161.862 186.982 160.772 188.072C159.683 189.163 159.071 190.642 159.071 192.184V309.895C159.071 311.437 159.683 312.916 160.772 314.007C161.862 315.097 163.339 315.71 164.88 315.71H375.903C377.443 315.71 378.921 315.097 380.01 314.007C381.099 312.916 381.711 311.437 381.711 309.895V192.184C381.711 191.42 381.561 190.664 381.269 189.959C380.977 189.253 380.549 188.612 380.01 188.072C379.471 187.532 378.83 187.104 378.126 186.812C377.421 186.519 376.666 186.369 375.903 186.369Z" fill="#3F3D56"/>
<path d="M270.56 240.377C277.683 240.377 283.458 234.596 283.458 227.465C283.458 220.334 277.683 214.553 270.56 214.553C263.437 214.553 257.663 220.334 257.663 227.465C257.663 234.596 263.437 240.377 270.56 240.377Z" stroke="#D0CDE1" stroke-width="2" stroke-miterlimit="10"/>
<path d="M266.433 245.025C273.556 245.025 279.33 239.244 279.33 232.113C279.33 224.982 273.556 219.201 266.433 219.201C259.309 219.201 253.535 224.982 253.535 232.113C253.535 239.244 259.309 245.025 266.433 245.025Z" fill="#D0CDE1"/>
<path d="M110.928 342.709H13.4238V343.877H110.928V342.709Z" fill="#3F3D56"/>
<path d="M536.541 342.709H439.037V343.877H536.541V342.709Z" fill="#3F3D56"/>
<path d="M70.2333 305.092C59.9613 321.881 63.4954 342.764 63.4954 342.764C63.4954 342.764 83.6836 336.428 93.9556 319.639C104.228 302.85 100.694 281.967 100.694 281.967C100.694 281.967 80.5053 288.303 70.2333 305.092Z" fill="#3F3D56"/>
<path d="M63.0761 342.903L62.4921 342.81C62.2809 342.777 41.2589 339.289 28.6689 324.209C16.0789 309.128 16.3819 287.798 16.386 287.584L16.3985 286.992L16.9825 287.085C17.1938 287.118 38.2157 290.605 50.8058 305.686C63.3957 320.767 63.0928 342.097 63.0886 342.311L63.0761 342.903Z" fill="#6C63FF"/>
<path d="M63.9056 343.434L63.3413 343.257C63.1373 343.193 42.8496 336.669 32.5952 319.909C22.3408 303.149 25.7531 282.091 25.7883 281.88L25.8871 281.297L26.4513 281.474C26.6554 281.538 46.943 288.062 57.1974 304.822C67.4519 321.582 64.0396 342.639 64.0043 342.85L63.9056 343.434ZM26.7194 282.656C26.2524 286.19 24.3908 304.522 33.4749 319.369C42.5595 334.216 59.717 340.885 63.0733 342.075C63.5403 338.54 65.4019 320.209 56.3178 305.362C47.2332 290.514 30.0757 283.846 26.7194 282.656H26.7194Z" fill="#3F3D56"/>
<path d="M64.1368 288.363C70.4051 288.363 75.4865 283.276 75.4865 277.001C75.4865 270.726 70.4051 265.638 64.1368 265.638C57.8685 265.638 52.7871 270.726 52.7871 277.001C52.7871 283.276 57.8685 288.363 64.1368 288.363Z" fill="#3F3D56"/>
<path d="M206.249 133.382L141.139 67.6848H110.401V66.6519H141.57L141.722 66.8053L206.983 132.656L206.249 133.382Z" fill="#3F3D56"/>
<path d="M359.171 131.316L424.28 65.6189H455.019V64.5859H423.849L423.698 64.7393L358.438 130.59L359.171 131.316Z" fill="#3F3D56"/>
<path d="M75.3206 35.2959H0V50.2103H75.3206V35.2959Z" fill="#D0CDE1"/>
<path d="M75.3206 58.1816H0V73.096H75.3206V58.1816Z" fill="#D0CDE1"/>
<path d="M75.3206 81.0675H0V95.9819H75.3206V81.0675Z" fill="#D0CDE1"/>
<path opacity="0.15" d="M31.1594 35.2959H0V50.2103H31.1594V35.2959Z" fill="black"/>
<path opacity="0.15" d="M10.0876 58.1816H0V73.096H10.0876V58.1816Z" fill="black"/>
<path opacity="0.15" d="M50.2137 81.0675H0V95.9819H50.2137V81.0675Z" fill="black"/>
<path d="M568 38.6465H492.563V45.3761H568V38.6465Z" fill="#D0CDE1"/>
<path d="M479.243 37.7754H464.305V52.7301H479.243V37.7754Z" fill="#6C63FF"/>
<path d="M479.243 60.2075H464.305V75.1622H479.243V60.2075Z" fill="#6C63FF"/>
<path d="M479.243 82.6395H464.305V97.5942H479.243V82.6395Z" fill="#6C63FF"/>
<path d="M483.37 49.6313H467.4V33.6434H483.37V49.6313ZM468.432 48.5983H482.338V34.6764H468.432V48.5983Z" fill="#3F3D56"/>
<path d="M568 61.0785H492.563V67.8081H568V61.0785Z" fill="#D0CDE1"/>
<path d="M483.37 72.0633H467.4V56.0757H483.37V72.0633ZM468.432 71.0303H482.338V57.1086H468.432V71.0303Z" fill="#3F3D56"/>
<path d="M568 83.5106H492.563V90.2402H568V83.5106Z" fill="#D0CDE1"/>
<path d="M483.37 94.4951H467.4V78.5076H483.37V94.4951ZM468.432 93.4622H482.338V79.5405H468.432V93.4622Z" fill="#3F3D56"/>
<path d="M97.5043 51.1575C102.063 51.1575 105.759 47.4578 105.759 42.8939C105.759 38.33 102.063 34.6302 97.5043 34.6302C92.9456 34.6302 89.25 38.33 89.25 42.8939C89.25 47.4578 92.9456 51.1575 97.5043 51.1575Z" fill="#6C63FF"/>
<path d="M97.5043 75.9484C102.063 75.9484 105.759 72.2487 105.759 67.6848C105.759 63.1209 102.063 59.4211 97.5043 59.4211C92.9456 59.4211 89.25 63.1209 89.25 67.6848C89.25 72.2487 92.9456 75.9484 97.5043 75.9484Z" fill="#6C63FF"/>
<path d="M97.5043 98.1569C102.063 98.1569 105.759 94.4571 105.759 89.8933C105.759 85.3294 102.063 81.6296 97.5043 81.6296C92.9456 81.6296 89.25 85.3294 89.25 89.8933C89.25 94.4571 92.9456 98.1569 97.5043 98.1569Z" fill="#6C63FF"/>
<path d="M93.3767 49.6081C91.6421 49.6081 89.9464 49.0931 88.5042 48.1284C87.0619 47.1636 85.9378 45.7923 85.274 44.188C84.6102 42.5836 84.4366 40.8182 84.775 39.115C85.1134 37.4119 85.9487 35.8474 87.1752 34.6195C88.4017 33.3916 89.9644 32.5553 91.6657 32.2166C93.3669 31.8778 95.1303 32.0517 96.7329 32.7162C98.3354 33.3808 99.7051 34.5061 100.669 35.95C101.632 37.3939 102.147 39.0914 102.147 40.828C102.144 43.1558 101.219 45.3875 99.5753 47.0336C97.9311 48.6796 95.7019 49.6055 93.3767 49.6081ZM93.3767 33.0808C91.8461 33.0808 90.35 33.5352 89.0774 34.3864C87.8048 35.2377 86.813 36.4477 86.2273 37.8633C85.6416 39.2789 85.4883 40.8366 85.7869 42.3394C86.0855 43.8422 86.8225 45.2226 87.9048 46.306C88.987 47.3895 90.3659 48.1273 91.867 48.4263C93.3681 48.7252 94.924 48.5718 96.338 47.9854C97.752 47.399 98.9606 46.4061 99.8109 45.1321C100.661 43.858 101.115 42.3602 101.115 40.828C101.113 38.774 100.297 36.8048 98.846 35.3525C97.3953 33.9001 95.4283 33.0831 93.3767 33.0808Z" fill="#3F3D56"/>
<path d="M93.3767 74.399C91.6421 74.399 89.9464 73.884 88.5042 72.9193C87.0619 71.9545 85.9378 70.5832 85.274 68.9789C84.6102 67.3745 84.4366 65.6091 84.775 63.9059C85.1134 62.2028 85.9487 60.6383 87.1752 59.4104C88.4017 58.1825 89.9644 57.3462 91.6657 57.0075C93.3669 56.6687 95.1303 56.8426 96.7329 57.5071C98.3354 58.1716 99.7051 59.297 100.669 60.7409C101.632 62.1848 102.147 63.8823 102.147 65.6189C102.144 67.9467 101.219 70.1784 99.5753 71.8245C97.9311 73.4705 95.7019 74.3964 93.3767 74.399ZM93.3767 57.8717C91.8461 57.8717 90.35 58.3261 89.0774 59.1773C87.8048 60.0286 86.813 61.2385 86.2273 62.6542C85.6416 64.0698 85.4883 65.6275 85.7869 67.1303C86.0855 68.6331 86.8225 70.0135 87.9048 71.0969C88.987 72.1804 90.3659 72.9182 91.867 73.2172C93.3681 73.5161 94.924 73.3627 96.338 72.7763C97.752 72.1899 98.9606 71.197 99.8109 69.923C100.661 68.6489 101.115 67.1511 101.115 65.6189C101.113 63.5649 100.297 61.5957 98.846 60.1434C97.3953 58.691 95.4283 57.874 93.3767 57.8717Z" fill="#3F3D56"/>
<path d="M93.3767 96.6074C91.6421 96.6074 89.9464 96.0925 88.5042 95.1277C87.0619 94.163 85.9378 92.7917 85.274 91.1873C84.6102 89.583 84.4366 87.8176 84.775 86.1144C85.1134 84.4113 85.9487 82.8468 87.1752 81.6189C88.4017 80.391 89.9644 79.5547 91.6657 79.216C93.3669 78.8772 95.1303 79.051 96.7329 79.7156C98.3354 80.3801 99.7051 81.5055 100.669 82.9494C101.632 84.3933 102.147 86.0908 102.147 87.8273C102.144 90.1552 101.219 92.3869 99.5753 94.0329C97.9311 95.679 95.7019 96.6048 93.3767 96.6074ZM93.3767 80.0802C91.8461 80.0802 90.35 80.5346 89.0774 81.3858C87.8048 82.2371 86.813 83.447 86.2273 84.8626C85.6416 86.2782 85.4883 87.8359 85.7869 89.3387C86.0855 90.8415 86.8225 92.2219 87.9048 93.3054C88.987 94.3889 90.3659 95.1267 91.867 95.4256C93.3681 95.7246 94.924 95.5711 96.338 94.9848C97.752 94.3984 98.9606 93.4054 99.8109 92.1314C100.661 90.8574 101.115 89.3596 101.115 87.8273C101.113 85.7734 100.297 83.8042 98.846 82.3519C97.3953 80.8995 95.4283 80.0825 93.3767 80.0802Z" fill="#3F3D56"/>
<path d="M510.22 307.847H509.188V300.099C509.189 299.689 509.352 299.295 509.642 299.004C509.932 298.714 510.326 298.55 510.736 298.55H513.315C513.452 298.55 513.583 298.495 513.68 298.399C513.777 298.302 513.831 298.17 513.831 298.034V292.869C513.831 292.732 513.777 292.6 513.68 292.504C513.583 292.407 513.452 292.352 513.315 292.352H510.736C510.326 292.352 509.932 292.188 509.642 291.898C509.352 291.607 509.189 291.214 509.188 290.803V288.22C509.188 288.083 509.134 287.952 509.037 287.855C508.94 287.759 508.809 287.704 508.672 287.704H504.029C503.619 287.704 503.226 287.54 502.935 287.25C502.645 286.959 502.482 286.565 502.482 286.155V285.638C502.482 285.501 502.427 285.37 502.33 285.273C502.234 285.176 502.103 285.122 501.966 285.122H483.393C483.257 285.122 483.126 285.176 483.029 285.273C482.932 285.37 482.878 285.501 482.878 285.638V286.155C482.877 286.565 482.714 286.959 482.424 287.25C482.134 287.54 481.74 287.704 481.33 287.704H476.687C476.55 287.704 476.419 287.759 476.322 287.855C476.225 287.952 476.171 288.083 476.171 288.22V290.803C476.17 291.214 476.007 291.607 475.717 291.898C475.427 292.188 475.034 292.352 474.623 292.352H472.044C471.907 292.352 471.776 292.407 471.679 292.504C471.582 292.6 471.528 292.732 471.528 292.869V298.034C471.528 298.17 471.582 298.302 471.679 298.399C471.776 298.495 471.907 298.55 472.044 298.55H475.139C475.549 298.55 475.943 298.714 476.233 299.004C476.523 299.295 476.686 299.689 476.687 300.099V307.847H475.655V300.099C475.655 299.962 475.601 299.831 475.504 299.734C475.407 299.637 475.276 299.583 475.139 299.583H472.044C471.633 299.583 471.24 299.419 470.95 299.129C470.66 298.838 470.497 298.444 470.496 298.034V292.869C470.497 292.458 470.66 292.064 470.95 291.774C471.24 291.483 471.633 291.32 472.044 291.319H474.623C474.76 291.319 474.891 291.265 474.988 291.168C475.085 291.071 475.139 290.94 475.139 290.803V288.22C475.14 287.81 475.303 287.416 475.593 287.125C475.883 286.835 476.277 286.671 476.687 286.671H481.33C481.467 286.671 481.598 286.616 481.695 286.52C481.791 286.423 481.846 286.291 481.846 286.155V285.638C481.846 285.227 482.009 284.833 482.3 284.543C482.59 284.252 482.983 284.089 483.393 284.089H501.966C502.376 284.089 502.769 284.252 503.06 284.543C503.35 284.833 503.513 285.227 503.513 285.638V286.155C503.513 286.291 503.568 286.423 503.665 286.52C503.761 286.616 503.893 286.671 504.029 286.671H508.672C509.083 286.671 509.476 286.835 509.766 287.125C510.056 287.416 510.22 287.81 510.22 288.22V290.803C510.22 290.94 510.275 291.071 510.371 291.168C510.468 291.265 510.599 291.319 510.736 291.319H513.315C513.726 291.32 514.119 291.483 514.409 291.774C514.699 292.064 514.863 292.458 514.863 292.869V298.034C514.863 298.444 514.699 298.838 514.409 299.129C514.119 299.419 513.726 299.583 513.315 299.583H510.736C510.599 299.583 510.468 299.637 510.371 299.734C510.275 299.831 510.22 299.962 510.22 300.099V307.847Z" fill="#3F3D56"/>
<path d="M508.673 344H477.203C476.793 344 476.399 343.836 476.109 343.546C475.819 343.255 475.656 342.861 475.655 342.451V320.242H476.687V342.451C476.687 342.587 476.742 342.719 476.838 342.816C476.935 342.912 477.066 342.967 477.203 342.967H508.673C508.809 342.967 508.94 342.912 509.037 342.816C509.134 342.719 509.188 342.587 509.188 342.451V320.242H510.22V342.451C510.22 342.861 510.057 343.255 509.766 343.546C509.476 343.836 509.083 344 508.673 344Z" fill="#3F3D56"/>
<path d="M515.379 311.462H476.687C476.117 311.462 475.655 311.924 475.655 312.495V322.824C475.655 323.395 476.117 323.857 476.687 323.857H515.379C515.949 323.857 516.411 323.395 516.411 322.824V312.495C516.411 311.924 515.949 311.462 515.379 311.462Z" fill="#6C63FF"/>
<path d="M512.025 320.759H473.333C472.923 320.758 472.529 320.595 472.239 320.304C471.949 320.014 471.786 319.62 471.785 319.209V308.88C471.786 308.469 471.949 308.075 472.239 307.785C472.529 307.494 472.923 307.331 473.333 307.33H512.025C512.435 307.331 512.829 307.494 513.119 307.785C513.409 308.075 513.572 308.469 513.573 308.88V319.209C513.572 319.62 513.409 320.014 513.119 320.304C512.829 320.595 512.435 320.758 512.025 320.759ZM473.333 308.363C473.196 308.363 473.065 308.418 472.968 308.515C472.871 308.611 472.817 308.743 472.817 308.88V319.209C472.817 319.346 472.871 319.477 472.968 319.574C473.065 319.671 473.196 319.726 473.333 319.726H512.025C512.162 319.726 512.293 319.671 512.39 319.574C512.486 319.477 512.541 319.346 512.541 319.209V308.88C512.541 308.743 512.486 308.611 512.39 308.515C512.293 308.418 512.162 308.363 512.025 308.363H473.333Z" fill="#3F3D56"/>
<path d="M491.648 280.473C490.276 271.224 489.914 261.854 490.567 252.526L491.648 237.089C485.694 248.95 487.039 264.562 491.648 280.473V280.473Z" fill="#D0CDE1"/>
<path d="M496.29 283.056C495.63 277.537 495.456 271.97 495.77 266.421L496.29 257.232C493.426 264.292 494.073 273.585 496.29 283.056Z" fill="#D0CDE1"/>
</g>
<defs>
<clipPath id="clip0_391_75">
<rect width="568" height="344" fill="white"/>
</clipPath>
</defs>
</svg>
