<svg width="137" height="70" viewBox="0 0 137 70" fill="none" xmlns="http://www.w3.org/2000/svg">
<path d="M27.75 61.775C28.275 61.775 28.8 61.7 29.4 61.475C30.975 60.875 32.775 59.45 33.225 57.95L33.3 57.425C33.3 56.075 32.025 54.425 28.65 50.675C25.5 47.15 20.475 41.6 16.35 38.225C20.4 34.85 25.35 29.45 28.5 25.925C31.875 22.175 33.075 20.6 33.075 19.25L33 18.65C32.625 17.15 30.75 15.725 29.25 15.125C28.65 14.9 28.125 14.825 27.6 14.825C26.775 14.825 26.025 15.05 25.425 15.35C24.375 15.725 23.475 16.175 21 18.425C18.6 20.675 14.55 24.725 11.175 28.4C7.725 32 4.95 35.15 4.05 37.025C3.825 37.475 3.675 37.925 3.675 38.225C3.675 38.6 3.825 38.9 4.05 39.2C4.05 39.35 4.125 39.425 4.2 39.575C5.1 41.45 7.95 44.6 11.325 48.2C14.775 51.8 18.75 55.85 21.225 58.175C23.625 60.425 24.525 60.875 25.575 61.25C26.25 61.55 26.925 61.775 27.75 61.775ZM78.9152 61.775C79.7402 61.775 80.4902 61.55 81.1652 61.25C82.2152 60.875 83.1152 60.425 85.5152 58.175C87.9902 55.85 91.9652 51.8 95.4152 48.2C98.7902 44.6 101.64 41.45 102.54 39.575C102.615 39.425 102.69 39.35 102.69 39.2C102.915 38.9 103.065 38.6 103.065 38.225C103.065 37.925 102.915 37.475 102.69 37.025C101.79 35.15 99.0152 32 95.5652 28.4C92.1902 24.725 88.1402 20.675 85.7402 18.425C83.2652 16.175 82.3652 15.725 81.3152 15.35C80.7152 15.05 79.9652 14.825 79.1402 14.825C78.6152 14.825 78.0902 14.9 77.4902 15.125C75.9902 15.725 74.1152 17.15 73.7402 18.65L73.6652 19.25C73.6652 20.6 74.8652 22.175 78.2402 25.925C81.3902 29.45 86.3402 34.85 90.3902 38.225C86.2652 41.6 81.2402 47.15 78.0902 50.675C74.7152 54.425 73.4402 56.075 73.4402 57.425L73.5152 57.95C73.9652 59.45 75.7652 60.875 77.3402 61.475C77.9402 61.7 78.4652 61.775 78.9152 61.775Z" fill="#6C63FF"/>
<path d="M41.1088 69.275C40.2838 69.275 39.6088 68.975 39.0088 68.675C37.6588 68.075 36.6838 67.7 36.6838 65.825C36.6838 65.225 36.7588 64.55 36.9838 63.65C37.7338 59.75 40.4338 52.475 43.6588 44C46.8838 35.525 50.7088 25.925 53.0338 20.45C55.3588 14.975 56.2588 13.55 57.3088 12.2C58.3588 10.85 59.4838 9.575 61.1338 9.575H61.2838C62.9338 9.65 64.9588 11.075 65.4838 13.475L65.6338 14.75C65.6338 17.15 64.4338 20.825 61.4338 29.075C57.9088 38.9 51.7588 55.325 47.4838 62.975C44.6338 68.075 42.6088 69.275 41.1088 69.275Z" fill="#ADACBE"/>
</svg>
