<svg width="60" height="60" viewBox="0 0 60 60" fill="none" xmlns="http://www.w3.org/2000/svg">
<path d="M0 7C0 3.13401 3.13401 0 7 0H53C56.866 0 60 3.13401 60 7V53C60 56.866 56.866 60 53 60H7C3.13401 60 0 56.866 0 53V7Z" fill="#C4C4C4"/>
<path d="M0 7C0 3.13401 3.13401 0 7 0H53C56.866 0 60 3.13401 60 7V53C60 56.866 56.866 60 53 60H7C3.13401 60 0 56.866 0 53V7Z" stroke="black"/>
<path d="M8.75 11.5789C8.75 10.4162 9.69256 9.47363 10.8553 9.47363H52.8947C54.0574 9.47363 55 10.4162 55 11.5789C55 12.7416 54.0574 13.6842 52.8947 13.6842H10.8553C9.69256 13.6842 8.75 12.7416 8.75 11.5789Z" fill="white"/>
<rect x="28.75" y="15.7894" width="26.25" height="11.5789" rx="3" fill="#6C63FF"/>
<rect x="28.75" y="30.5264" width="26.25" height="11.5789" rx="3" fill="white"/>
<rect x="28.75" y="45.2632" width="26.25" height="12.6316" rx="3" fill="#6C63FF"/>
<rect x="2.5" y="15.7894" width="20" height="40" rx="3" fill="#6C63FF"/>
<path d="M3.40234 11.2393V13.4973H6.49629V11.2393" stroke="white" stroke-width="0.5"/>
<path d="M2.5 11.7147L4.92401 10.5262L7.26984 11.7147" stroke="white" stroke-width="0.5"/>
<rect x="28.75" y="2.10522" width="8.5824" height="5.26823" rx="2.63411" fill="white"/>
<rect x="37.7227" y="2.10522" width="8.32233" height="5.26823" rx="2.63411" fill="white"/>
<rect x="46.4346" y="2.10522" width="8.71243" height="5.26823" rx="2.63411" fill="white"/>
</svg>
