<svg width="511" height="493" viewBox="0 0 511 493" fill="none" xmlns="http://www.w3.org/2000/svg">
<g clip-path="url(#clip0_391_166)">
<path d="M370.989 279.418V415.441L393.223 452.521L394.915 455.341H482.644L484.416 279.418H370.989Z" fill="#E6E6E6"/>
<path opacity="0.1" d="M370.989 279.418V415.441L393.223 452.521L394.587 279.418H370.989Z" fill="black"/>
<path d="M159.199 275.791V411.814L136.965 448.894L135.273 451.714H47.5441L45.7715 275.791H159.199Z" fill="#E6E6E6"/>
<path opacity="0.1" d="M159.199 275.791V411.814L136.965 448.894L135.601 275.791H159.199Z" fill="black"/>
<path d="M511 273.071V281.232H34.252V269.443L78.5592 245.865H472.01L511 273.071Z" fill="#E6E6E6"/>
<path opacity="0.1" d="M511 273.071V281.232H34.252V269.443L511 273.071Z" fill="black"/>
<path d="M102.485 313.877H81.2169L72.3555 307.53H112.232L102.485 313.877Z" fill="#3F3D56"/>
<path d="M102.485 340.175H81.2169L72.3555 333.827H112.232L102.485 340.175Z" fill="#3F3D56"/>
<path d="M102.485 377.355H81.2169L72.3555 371.007H112.232L102.485 377.355Z" fill="#3F3D56"/>
<path d="M102.485 414.534H81.2169L72.3555 408.187H112.232L102.485 414.534Z" fill="#3F3D56"/>
<path d="M427.702 317.504H448.97L457.831 311.157H417.954L427.702 317.504Z" fill="#3F3D56"/>
<path d="M427.702 343.802H448.97L457.831 337.454H417.954L427.702 343.802Z" fill="#3F3D56"/>
<path d="M427.702 380.982H448.97L457.831 374.635H417.954L427.702 380.982Z" fill="#3F3D56"/>
<path d="M427.702 418.162H448.97L457.831 411.814H417.954L427.702 418.162Z" fill="#3F3D56"/>
<path d="M442.185 88.5686H263.141C262.252 88.5685 261.372 88.7476 260.55 89.0958C259.728 89.444 258.982 89.9544 258.353 90.5979C257.724 91.2413 257.226 92.0052 256.885 92.846C256.545 93.6867 256.37 94.5878 256.37 95.4978V218.92C256.37 219.83 256.545 220.731 256.885 221.571C257.226 222.412 257.724 223.176 258.353 223.82C258.982 224.463 259.728 224.973 260.55 225.322C261.372 225.67 262.252 225.849 263.141 225.849H331.108L328.562 242.485C328.562 242.485 314.01 250.396 324.241 250.629C334.473 250.862 382.677 250.629 382.677 250.629C382.677 250.629 391.999 250.629 377.22 242.253L374.824 225.849H442.185C443.074 225.849 443.955 225.67 444.776 225.322C445.598 224.973 446.345 224.463 446.973 223.82C447.602 223.176 448.101 222.412 448.441 221.571C448.781 220.731 448.956 219.83 448.956 218.92V95.4978C448.956 94.5878 448.781 93.6867 448.441 92.846C448.101 92.0052 447.602 91.2413 446.973 90.5979C446.345 89.9544 445.598 89.444 444.776 89.0958C443.955 88.7476 443.074 88.5685 442.185 88.5686Z" fill="#3F3D56"/>
<path d="M442.475 95.8982H262.85V198.742H442.475V95.8982Z" fill="#F2F2F2"/>
<path d="M352.663 93.8041C353.291 93.8041 353.8 93.2832 353.8 92.6407C353.8 91.9982 353.291 91.4773 352.663 91.4773C352.035 91.4773 351.526 91.9982 351.526 92.6407C351.526 93.2832 352.035 93.8041 352.663 93.8041Z" fill="#F2F2F2"/>
<path d="M352.663 220.846C355.049 220.846 356.983 218.867 356.983 216.426C356.983 213.984 355.049 212.005 352.663 212.005C350.277 212.005 348.343 213.984 348.343 216.426C348.343 218.867 350.277 220.846 352.663 220.846Z" fill="#F2F2F2"/>
<path d="M345.932 263.194V265.521H223.604V263.659L223.773 263.194L226.788 254.817H343.431L345.932 263.194Z" fill="#3F3D56"/>
<path d="M393.007 260.916C392.784 261.891 391.943 262.919 390.042 263.892C383.221 267.382 369.351 262.961 369.351 262.961C369.351 262.961 358.664 261.1 358.664 256.213C358.964 256.003 359.277 255.813 359.601 255.643C362.469 254.091 371.977 250.259 388.838 255.806C390.08 256.205 391.189 256.949 392.043 257.955C392.421 258.335 392.705 258.802 392.873 259.317C393.04 259.831 393.086 260.379 393.007 260.916Z" fill="#3F3D56"/>
<path opacity="0.1" d="M393.006 260.916C384.657 264.19 377.215 264.434 369.578 259.005C366.69 256.82 363.192 255.642 359.601 255.643C362.468 254.091 371.977 250.259 388.837 255.806C390.079 256.205 391.189 256.949 392.042 257.955C392.42 258.335 392.705 258.802 392.872 259.317C393.04 259.831 393.086 260.379 393.006 260.916Z" fill="black"/>
<path d="M382.538 259.005C384.17 259.005 385.494 258.589 385.494 258.075C385.494 257.561 384.17 257.144 382.538 257.144C380.905 257.144 379.582 257.561 379.582 258.075C379.582 258.589 380.905 259.005 382.538 259.005Z" fill="#F2F2F2"/>
<path opacity="0.1" d="M345.932 263.194V265.521H223.604V263.659L223.773 263.194H345.932Z" fill="black"/>
<path d="M68.0161 0.000100749C66.7746 -0.104209 65.5314 0.179979 64.4513 0.815007C63.3908 1.55823 62.7224 2.86026 62.0401 4.07189C59.4314 8.75973 55.8997 12.8421 51.6688 16.0603C48.5872 18.3706 44.6693 21.2511 45.1965 25.5106C45.4746 26.9173 45.9825 28.2659 46.6986 29.4998C49.5415 35.3725 57.2993 39.9108 56.5362 46.612C59.3607 41.7732 55.5828 39.3806 58.4072 34.5418C59.7523 32.2374 62.089 29.6363 64.1198 31.0834C64.7998 31.568 65.2463 32.437 65.9543 32.8622C67.6437 33.8766 69.441 31.9372 70.9364 30.5634C76.0931 25.8263 83.4264 27.0674 89.8434 28.5433C92.8728 29.2401 96.2003 30.1543 97.9911 33.1173C100.346 37.0129 95.7541 41.2203 94.5939 45.6247C94.4992 46 94.4947 46.3932 94.5809 46.7706C94.667 47.1481 94.8412 47.4986 95.0886 47.7921C95.3359 48.0856 95.6491 48.3135 96.0013 48.4562C96.3534 48.5989 96.7341 48.6522 97.1108 48.6115C99.0363 48.4171 101.317 48.2578 101.431 47.3932C103.854 47.4814 106.822 47.2007 107.86 44.6193C108.177 43.598 108.345 42.5343 108.357 41.4627C108.738 37.1266 110.537 33.1708 111.728 29.0439C112.92 24.917 113.438 20.0805 111.427 16.4215C110.71 15.2041 109.822 14.1005 108.793 13.1455C97.3836 1.84665 82.3829 -0.0166709 68.0161 0.000100749Z" fill="#2F2E41"/>
<path d="M59.0171 55.0761C59.0171 55.0761 61.4984 76.2362 52.4002 77.929C43.302 79.6218 60.6713 108.4 60.6713 108.4L102.027 113.478L92.1015 79.6218C92.1015 79.6218 85.4846 77.0826 89.6201 60.1545C93.7557 43.2265 59.0171 55.0761 59.0171 55.0761Z" fill="#FFB8B8"/>
<path d="M33.79 418.606L37.0988 465.159H54.4675L49.5054 418.606H33.79Z" fill="#FFB8B8"/>
<path d="M161.166 330.58L163.647 369.515L182.671 361.051L175.227 328.888L161.166 330.58Z" fill="#FFB8B8"/>
<path d="M21.3838 240.862C21.3838 240.862 22.2109 289.953 27.1736 306.035C32.1363 322.117 31.3091 322.963 30.482 325.502C29.6549 328.041 28.8278 326.349 28.8278 330.581C28.8278 334.813 27.1736 401.679 28.8278 407.603C30.482 413.528 23.8651 423.685 28.8278 424.531C33.7905 425.378 56.9495 424.531 57.7767 419.453C58.6038 414.375 51.1598 412.682 54.4682 409.296C57.7767 405.911 62.7393 336.505 62.7393 336.505L74.3189 288.26L95.8237 262.868H141.315L155.376 318.731C155.376 318.731 149.586 334.813 153.721 334.813C157.857 334.813 182.67 339.891 182.67 321.27C182.67 302.649 174.399 247.633 172.745 245.94C171.091 244.247 173.572 238.323 171.091 235.783C168.609 233.244 139.661 215.47 128.908 212.084C118.156 208.699 103.072 204.669 103.072 204.669L21.3838 240.862Z" fill="#2F2E41"/>
<path d="M182.67 354.28C182.67 354.28 170.264 350.048 164.474 362.744C158.684 375.44 161.165 378.825 161.165 378.825C161.165 378.825 180.189 385.597 183.497 382.211C184.937 380.738 189.507 380.226 194.212 380.118C201.378 379.954 203.284 369.579 196.517 367.164C196.315 367.092 196.111 367.029 195.904 366.976C189.287 365.283 182.67 354.28 182.67 354.28Z" fill="#2F2E41"/>
<path d="M77.6278 69.0415C91.3318 69.0415 102.441 57.6731 102.441 43.6494C102.441 29.6258 91.3318 18.2573 77.6278 18.2573C63.9237 18.2573 52.8145 29.6258 52.8145 43.6494C52.8145 57.6731 63.9237 69.0415 77.6278 69.0415Z" fill="#FFB8B8"/>
<path d="M45.3701 88.5089C45.3701 88.5089 85.8985 96.9729 95.8238 83.4304C105.749 69.888 109.885 121.519 109.885 121.519L114.847 175.688L107.403 205.313C107.403 205.313 68.5292 237.476 56.1226 240.015C43.7159 242.554 24.6924 244.247 24.6924 244.247C24.6924 244.247 30.4822 150.296 30.4822 148.604C30.4822 146.911 45.3701 88.5089 45.3701 88.5089Z" fill="#6C63FF"/>
<path d="M57.6955 72.635C57.6955 72.635 48.6783 67.3489 46.197 72.4274C43.7156 77.5058 20.5565 90.2018 18.0752 90.2018C15.5939 90.2018 23.0379 160.453 19.7294 168.917C16.421 177.381 0.70591 239.169 9.80412 244.247C18.9023 249.326 12.2854 239.169 21.3837 251.865C30.4819 264.561 75.1458 264.561 77.6271 259.483C80.1085 254.404 57.7765 216.316 61.912 180.767C66.0476 145.218 72.6645 96.1267 66.8747 89.3554C61.0849 82.5842 57.6955 72.635 57.6955 72.635Z" fill="#2F2E41"/>
<path d="M87.5518 78.3522L88.7038 74.2949C88.7038 74.2949 123.118 85.9698 124.772 93.5875C126.426 101.205 125.599 154.529 119.809 158.761C114.019 162.993 105.748 169.764 111.538 179.921C117.328 190.077 123.945 201.081 128.907 201.927C133.87 202.774 142.968 208.698 140.487 214.623C138.005 220.548 108.23 209.545 108.23 209.545C108.23 209.545 88.3789 194.309 89.206 170.61C90.0331 146.911 87.5518 78.3522 87.5518 78.3522Z" fill="#2F2E41"/>
<path d="M116.502 178.228L96.6509 216.316C96.6509 216.316 67.7021 246.786 84.2443 250.172C100.787 253.558 109.885 222.241 109.885 222.241L131.39 190.924L116.502 178.228Z" fill="#FFB8B8"/>
<path d="M69.2246 6.64393C68.2244 6.56809 67.2226 6.76693 66.3227 7.2199C65.509 7.82803 64.8384 8.61449 64.3599 9.52185C62.1537 12.9178 59.278 15.804 55.9172 17.9952C53.4086 19.6281 50.2193 21.664 50.6485 24.6746C50.8815 25.684 51.2962 26.6401 51.8713 27.4941C54.1935 31.6869 55.118 36.5395 54.5048 41.3178L61.4026 31.0578C62.4976 29.4291 64.3997 27.5906 66.0529 28.6134C66.6064 28.9559 66.9699 29.5702 67.5462 29.8706C68.9215 30.5877 70.3845 29.2169 71.6019 28.2459C75.7996 24.8978 81.7692 25.7749 86.9929 26.8181C89.459 27.3106 92.1677 27.9567 93.6255 30.0509C96.0482 33.5311 93.5185 38.5596 94.9324 42.5801C95.3282 42.2965 95.6643 41.9345 95.9208 41.5155C96.1774 41.0966 96.3491 40.6292 96.4258 40.141C98.3979 40.2034 100.814 40.005 101.659 38.1805C101.916 37.4655 102.053 36.7111 102.064 35.9494C102.374 32.8847 103.838 30.0887 104.808 27.1719C105.778 24.255 106.2 20.8366 104.563 18.2505C103.964 17.3742 103.242 16.5939 102.419 15.935C93.131 7.94905 80.9198 6.63208 69.2246 6.64393Z" fill="#2F2E41"/>
<path d="M116.502 90.2017L124.208 92.2949C124.208 92.2949 142.142 139.293 138.007 171.456C133.871 203.62 131.39 196.849 131.39 196.849C131.39 196.849 124.773 181.613 109.885 184.999L116.502 90.2017Z" fill="#2F2E41"/>
<path d="M34.9363 459.006C32.9418 461.78 33.3417 465.745 31.5749 468.676C30.0434 471.216 27.1572 472.548 25.2416 474.8C24.6304 475.548 24.0855 476.35 23.6134 477.197C21.8364 480.242 20.3921 484.146 22.1421 487.208C23.55 489.672 26.5092 490.634 29.2231 491.291C32.6533 492.12 36.2174 492.784 39.6872 492.15C43.1571 491.516 46.5482 489.342 47.7854 485.965C48.0286 485.115 48.3176 484.28 48.6513 483.464C50.532 479.675 56.431 479.634 58.3558 475.869C59.7028 473.233 58.4646 470.048 57.2269 467.357L53.4467 459.139C52.1922 456.412 47.1068 457.98 44.4556 457.327C40.9979 456.474 37.4238 455.535 34.9363 459.006Z" fill="#2F2E41"/>
<path d="M7.32324 195.156L42.0619 250.172C42.0619 250.172 63.5667 278.104 70.1836 265.408C76.8005 252.711 47.0245 231.551 47.0245 231.551L24.6925 189.231L7.32324 195.156Z" fill="#FFB8B8"/>
<path d="M24.6922 91.8945L18.0753 90.2017C18.0753 90.2017 4.84155 94.4337 1.53312 112.208C-1.77532 129.983 0.706002 201.081 4.84155 201.927C8.9771 202.773 25.267 189.547 27.8745 192.352C30.482 195.156 22.2109 180.767 24.6922 173.149C27.1735 165.532 24.6922 91.8945 24.6922 91.8945Z" fill="#2F2E41"/>
<path d="M335.661 129.675H314.283V134.942H335.661V129.675Z" fill="#6C63FF"/>
<path d="M409.691 129.675H402.169V134.942H409.691V129.675Z" fill="#6C63FF"/>
<path d="M424.734 129.675H417.212V134.942H424.734V129.675Z" fill="#6C63FF"/>
<path d="M394.25 129.675H343.182V134.942H394.25V129.675Z" fill="#6C63FF"/>
<path d="M308.741 163.705H287.363V168.971H308.741V163.705Z" fill="#6C63FF"/>
<path d="M382.77 163.705H375.248V168.971H382.77V163.705Z" fill="#6C63FF"/>
<path d="M397.814 163.705H390.292V168.971H397.814V163.705Z" fill="#6C63FF"/>
<path d="M367.331 163.705H316.263V168.971H367.331V163.705Z" fill="#6C63FF"/>
<path d="M397.022 141.424H375.645V146.69H397.022V141.424Z" fill="#6C63FF"/>
<path d="M425.922 141.424H404.544V146.69H425.922V141.424Z" fill="#6C63FF"/>
<path d="M294.885 141.424H287.363V146.69H294.885V141.424Z" fill="#6C63FF"/>
<path d="M309.928 141.424H302.406V146.69H309.928V141.424Z" fill="#6C63FF"/>
<path d="M368.519 141.424H317.45V146.69H368.519V141.424Z" fill="#6C63FF"/>
<path d="M352.683 152.767H331.306V158.033H352.683V152.767Z" fill="#6C63FF"/>
<path d="M323.784 152.767H302.406V158.033H323.784V152.767Z" fill="#6C63FF"/>
<path d="M294.885 152.767H287.363V158.033H294.885V152.767Z" fill="#6C63FF"/>
<path d="M425.921 152.767H418.399V158.033H425.921V152.767Z" fill="#6C63FF"/>
<path d="M410.877 152.767H359.809V158.033H410.877V152.767Z" fill="#6C63FF"/>
</g>
<defs>
<clipPath id="clip0_391_166">
<rect width="511" height="492.402" fill="white"/>
</clipPath>
</defs>
</svg>
