<svg width="81" height="82" viewBox="0 0 81 82" fill="none" xmlns="http://www.w3.org/2000/svg">
<path d="M61.5732 52.0005C61.45 50.3987 54.5732 44.5006 52.5732 45.5006C49.0723 46.0003 48.0723 53.0003 43.5723 50.0003C39.5723 47.3336 36.0723 44.5003 32.5723 39.5003C30.5723 36.0003 33.0723 35.0002 34.5723 33.5003C36.0722 32.0004 33.0723 22.9999 32.0723 21.5002C31.5723 20.7504 29.9079 20.8668 28.5723 21.0003C23.5722 21.5002 20.0719 26.5003 21.5721 34.0003C23.6725 44.5003 41.0732 56.5004 41.0732 56.5004C52.0732 64.0001 62.0732 58.5003 61.5732 52.0005Z" fill="#D1D0D0" stroke="#D1D0D0" stroke-width="0.3"/>
<path d="M23.0366 71.8816L22.8253 71.7634L22.5977 71.6806C21.8849 71.4214 21.1979 71.4107 20.7403 71.4343C20.2425 71.4598 19.7425 71.5434 19.2805 71.6443C18.357 71.846 17.3116 72.1789 16.2517 72.5587C14.1268 73.3202 11.5807 74.4044 9.18576 75.4241L9.17834 75.4273C7.56232 76.1154 6.01919 76.7723 4.64989 77.3195C5.09272 76.3373 5.58734 75.2681 6.1025 74.1546C6.27071 73.791 6.44112 73.4227 6.61262 73.0511C7.68044 70.7375 8.78897 68.3017 9.55513 66.3175C9.93413 65.336 10.2711 64.3598 10.4688 63.5118C10.5664 63.0933 10.6567 62.5966 10.6703 62.0877C10.6813 61.6763 10.6657 60.7406 10.0769 59.848C6.36162 54.2135 4.5727 47.0761 4.5727 39.5C4.5727 19.3416 20.9143 3 41.0727 3C61.2311 3 77.5727 19.3416 77.5727 39.5C77.5727 59.6584 61.2311 76 41.0727 76C34.4303 76 28.1594 74.746 23.0366 71.8816Z" stroke="#D1D0D0" stroke-width="6"/>
</svg>
