<svg width="464" height="46" viewBox="0 0 464 46" fill="none" xmlns="http://www.w3.org/2000/svg">
<path d="M45.9707 28.6699L57.2256 0.520508H68.5049L51.6104 45.54H40.3555L34.7158 30.5254L29.1006 45.54H17.8457L0.951172 0.520508H12.2305L23.4609 28.6699L28.9053 15.0225L34.7158 0.520508H34.7646L40.5508 15.0225L45.9707 28.6699Z" fill="#6C63FF"/>
<path d="M98.1924 0.520508C101.301 0.520508 104.215 1.10645 106.933 2.27832C109.667 3.4502 112.06 5.06152 114.11 7.1123C116.177 9.16309 117.789 11.5557 118.944 14.29C120.116 17.0081 120.702 19.9215 120.702 23.0303C120.702 26.139 120.116 29.0605 118.944 31.7949C117.789 34.513 116.177 36.9056 114.11 38.9727C112.06 41.0234 109.667 42.6266 106.933 43.7822C104.215 44.9541 101.301 45.54 98.1924 45.54C95.0837 45.54 92.1621 44.9541 89.4277 43.7822C86.7096 42.6266 84.3252 41.0234 82.2744 38.9727C80.2236 36.9056 78.6123 34.513 77.4404 31.7949C76.2686 29.0605 75.6826 26.139 75.6826 23.0303C75.6826 21.0934 75.9186 19.2135 76.3906 17.3906H88.4512C87.4421 19.0996 86.9375 20.9795 86.9375 23.0303C86.9375 25.0973 87.4421 26.9854 88.4512 28.6943C89.4603 30.4033 90.8193 31.7624 92.5283 32.7715C94.2373 33.7806 96.1253 34.2852 98.1924 34.2852C100.259 34.2852 102.147 33.7806 103.856 32.7715C105.565 31.7624 106.924 30.4033 107.934 28.6943C108.943 26.9854 109.447 25.0973 109.447 23.0303C109.447 20.9632 108.943 19.0752 107.934 17.3662C106.924 15.6572 105.565 14.2982 103.856 13.2891C102.147 12.2799 100.259 11.7754 98.1924 11.7754H78.6855C80.0039 9.51302 81.6478 7.54362 83.6172 5.86719C85.6029 4.19076 87.8327 2.88053 90.3066 1.93652C92.7806 0.992513 95.4092 0.520508 98.1924 0.520508Z" fill="#6C63FF"/>
<path d="M139.672 0.520508V34.2852H162.157V45.54H128.393V0.520508H139.672Z" fill="#6C63FF"/>
<path d="M169.457 11.7754V0.520508H214.501V11.7754H169.457ZM169.457 45.54V17.3906H214.501V28.6699H180.761V45.54H169.457Z" fill="#6C63FF"/>
<path d="M222.143 11.2139C222.143 9.24447 222.623 7.4541 223.583 5.84277C224.543 4.21517 225.829 2.92122 227.44 1.96094C229.068 1.00065 230.867 0.520508 232.836 0.520508H267.162V11.7754H236.01C235.277 11.7754 234.659 12.0358 234.154 12.5566C233.65 13.0612 233.397 13.6715 233.397 14.3877V14.7051C233.397 15.4538 233.658 16.0885 234.179 16.6094C234.716 17.1302 235.351 17.3906 236.083 17.3906H256.249C258.251 17.3906 260.074 17.887 261.718 18.8799C263.378 19.8564 264.696 21.1748 265.673 22.835C266.666 24.4788 267.162 26.3099 267.162 28.3281V34.5537C267.162 36.5882 266.666 38.4355 265.673 40.0957C264.68 41.7559 263.354 43.0742 261.693 44.0508C260.033 45.0436 258.194 45.54 256.176 45.54H222.143V34.2852H253.1C253.865 34.2852 254.524 34.0166 255.077 33.4795C255.631 32.9261 255.907 32.2588 255.907 31.4775C255.907 30.6963 255.631 30.0371 255.077 29.5C254.524 28.9466 253.865 28.6699 253.1 28.6699H232.25C230.395 28.6699 228.694 28.2142 227.147 27.3027C225.618 26.3913 224.397 25.1706 223.485 23.6406C222.59 22.1107 222.143 20.4098 222.143 18.5381V11.2139Z" fill="#6C63FF"/>
<path d="M274.56 11.7998V0.544922H319.604V11.7998H302.709V45.5645H291.454V11.7998H274.56Z" fill="#6C63FF"/>
<path d="M336.742 0.520508H347.973L364.867 45.54H353.612L342.357 17.3906L331.127 45.54H319.848L336.742 0.520508Z" fill="#6C63FF"/>
<path d="M383.593 28.3037C383.593 29.9476 384.171 31.3555 385.326 32.5273C386.498 33.6829 387.914 34.2607 389.574 34.2607H417.357V45.5156H382.763C380.842 45.5156 379.092 45.0436 377.514 44.0996C375.935 43.1719 374.674 41.9186 373.729 40.3398C372.802 38.7611 372.338 37.0114 372.338 35.0908V17.3662H383.593V28.3037ZM372.338 11.3359C372.338 9.35026 372.826 7.53548 373.803 5.8916C374.779 4.24772 376.09 2.9375 377.733 1.96094C379.377 0.984375 381.192 0.496094 383.178 0.496094H417.357V11.751H372.338V11.3359Z" fill="#6C63FF"/>
<path d="M450.365 0.520508H463.866L445.824 23.1035L463.744 45.54H450.243L439.062 31.5752L435.912 35.5059L435.888 45.54H424.633V0.520508H435.888V18.6113L450.365 0.520508Z" fill="#6C63FF"/>
</svg>
